<?xml version="1.0" encoding="UTF-8"?>
<!DOCTYPE svg PUBLIC "-//W3C//DTD SVG 1.1//EN" "http://www.w3.org/Graphics/SVG/1.1/DTD/svg11.dtd">
<svg xmlns="http://www.w3.org/2000/svg" version="1.1" width="640px" height="640px" style="shape-rendering:geometricPrecision; text-rendering:geometricPrecision; image-rendering:optimizeQuality; fill-rule:evenodd; clip-rule:evenodd" xmlns:xlink="http://www.w3.org/1999/xlink">
<g><path style="opacity:1" fill="#050505" d="M 239.5,65.5 C 249.494,64.7489 257.327,68.4155 263,76.5C 272.99,91.5008 270.99,104.501 257,115.5C 256.102,129.557 256.602,143.557 258.5,157.5C 272.167,150 285.833,142.5 299.5,135C 301.635,134.365 303.635,134.699 305.5,136C 388.563,180.529 471.563,225.029 554.5,269.5C 529.175,270.5 503.842,270.833 478.5,270.5C 478.579,312.518 477.913,354.518 476.5,396.5C 466.852,397.245 457.185,397.578 447.5,397.5C 447.667,356.832 447.5,316.165 447,275.5C 446.832,265.151 446.332,254.817 445.5,244.5C 397.603,219.301 349.77,193.968 302,168.5C 276.612,181.11 251.445,194.11 226.5,207.5C 226.5,176.833 226.5,146.167 226.5,115.5C 225.448,115.649 224.448,115.483 223.5,115C 210.311,100.316 210.311,85.6492 223.5,71C 228.74,68.5336 234.073,66.7003 239.5,65.5 Z M 237.5,81.5 C 249.053,81.2038 253.886,86.5371 252,97.5C 248.441,104.188 242.941,106.355 235.5,104C 229.59,99.299 228.09,93.4656 231,86.5C 232.78,84.2059 234.947,82.5392 237.5,81.5 Z"/></g>
<g><path style="opacity:1" fill="#010101" d="M 173.5,104.5 C 195.298,101.547 207.631,110.881 210.5,132.5C 209.771,141.297 205.938,148.297 199,153.5C 198.139,176.832 197.306,200.165 196.5,223.5C 183.662,231.087 170.662,238.42 157.5,245.5C 156.669,252.811 156.169,260.144 156,267.5C 155.5,336.499 155.333,405.499 155.5,474.5C 187.847,474.793 220.18,474.293 252.5,473C 264.664,460.576 277.997,459.243 292.5,469C 302.454,480.173 303.954,492.34 297,505.5C 287.593,517.478 275.76,520.644 261.5,515C 257.252,512.757 253.586,509.757 250.5,506C 208.839,504.991 167.172,504.491 125.5,504.5C 125.5,426.5 125.5,348.5 125.5,270.5C 99.8247,270.833 74.158,270.5 48.5,269.5C 87.3407,248.246 126.341,227.246 165.5,206.5C 167.999,189.205 168.165,171.872 166,154.5C 150.324,138.549 150.824,123.049 167.5,108C 169.727,107.059 171.727,105.892 173.5,104.5 Z M 178.5,119.5 C 191.769,119.602 196.269,125.936 192,138.5C 186.914,144.116 181.081,144.949 174.5,141C 168.349,132.404 169.682,125.238 178.5,119.5 Z"/></g>
<g><path style="opacity:1" fill="#0c0c0c" d="M 243.5,268.5 C 261.304,268.461 268.471,277.128 265,294.5C 262.353,298.314 259.187,301.647 255.5,304.5C 254.534,315.822 253.701,327.155 253,338.5C 248.333,343.167 243.667,347.833 239,352.5C 238.5,361.16 238.334,369.827 238.5,378.5C 234.32,378.811 230.32,378.145 226.5,376.5C 224.375,366.538 224.209,356.538 226,346.5C 231.367,341.468 236.367,336.135 241,330.5C 241.971,321.393 241.471,312.393 239.5,303.5C 229.22,296.835 226.72,287.835 232,276.5C 235.15,272.689 238.983,270.023 243.5,268.5 Z M 243.5,278.5 C 251.564,276.207 256.23,279.041 257.5,287C 256.542,294.658 252.209,297.658 244.5,296C 238.354,292.74 236.854,287.907 240,281.5C 241.145,280.364 242.312,279.364 243.5,278.5 Z"/></g>
<g><path style="opacity:1" fill="#0a0a0a" d="M 332.5,268.5 C 345.728,268.226 352.728,274.726 353.5,288C 353.344,291.817 352.178,295.317 350,298.5C 347.146,300.598 344.479,302.931 342,305.5C 341.737,316.925 340.737,328.258 339,339.5C 334.667,344.167 330.333,348.833 326,353.5C 325.5,361.827 325.334,370.16 325.5,378.5C 321.466,378.495 317.466,378.162 313.5,377.5C 311.498,367.178 311.332,356.844 313,346.5C 317.667,341.833 322.333,337.167 327,332.5C 328.878,322.886 328.878,313.22 327,303.5C 314.335,294.352 313.168,283.852 323.5,272C 326.571,270.704 329.571,269.538 332.5,268.5 Z M 330.5,278.5 C 338.564,276.207 343.23,279.041 344.5,287C 343.542,294.658 339.209,297.658 331.5,296C 325.354,292.74 323.854,287.907 327,281.5C 328.145,280.364 329.312,279.364 330.5,278.5 Z"/></g>
<g><path style="opacity:1" fill="#050505" d="M 287.5,286.5 C 292.167,286.5 296.833,286.5 301.5,286.5C 301.878,303.868 301.378,321.201 300,338.5C 294.077,343.751 288.91,349.584 284.5,356C 284.862,357.225 285.362,358.391 286,359.5C 299.184,368.746 300.684,379.579 290.5,392C 273.44,399.637 263.107,394.303 259.5,376C 260.984,368.865 264.818,363.365 271,359.5C 272.061,354.896 272.727,350.229 273,345.5C 277.667,340.833 282.333,336.167 287,331.5C 287.5,316.504 287.667,301.504 287.5,286.5 Z"/></g>
<g><path style="opacity:1" fill="#050505" d="M 374.5,286.5 C 379.167,286.5 383.833,286.5 388.5,286.5C 388.896,303.871 388.396,321.205 387,338.5C 382.667,342.833 378.333,347.167 374,351.5C 373.259,354.562 373.425,357.562 374.5,360.5C 386.539,369.942 387.539,380.442 377.5,392C 361.014,399.59 350.68,394.59 346.5,377C 347.698,369.437 351.532,363.604 358,359.5C 359.145,354.917 359.811,350.251 360,345.5C 364.667,340.833 369.333,336.167 374,331.5C 374.5,316.504 374.667,301.504 374.5,286.5 Z"/></g>
<g><path style="opacity:1" fill="#010101" d="M 531.5,397.5 C 556.88,397.044 568.047,409.377 565,434.5C 559.143,449.321 548.31,455.154 532.5,452C 525.667,450.752 520.334,447.252 516.5,441.5C 515.167,441.167 513.833,440.833 512.5,440.5C 501.188,439.59 489.854,439.256 478.5,439.5C 478.558,461.199 477.891,482.865 476.5,504.5C 446.121,504.754 415.788,504.754 385.5,504.5C 385.481,518.85 385.981,533.184 387,547.5C 397.815,556.953 401.148,568.62 397,582.5C 386.82,599.112 372.986,602.945 355.5,594C 343.861,584.621 340.694,572.788 346,558.5C 348.964,554.534 352.297,550.867 356,547.5C 356.5,523.169 356.667,498.836 356.5,474.5C 386.833,474.5 417.167,474.5 447.5,474.5C 447.5,453.167 447.5,431.833 447.5,410.5C 468.836,410.667 490.169,410.5 511.5,410C 513.167,409.667 514.833,409.333 516.5,409C 520.52,403.804 525.52,399.971 531.5,397.5 Z M 536.5,412.5 C 548.573,413.727 552.74,420.06 549,431.5C 542.949,438.866 536.615,439.199 530,432.5C 525.125,423.535 527.291,416.868 536.5,412.5 Z"/></g>
</svg>
